<?xml version="1.0" encoding="UTF-8" standalone="no"?>
<!-- Created with Inkscape (http://www.inkscape.org/) -->

<svg
   xmlns:dc="http://purl.org/dc/elements/1.1/"
   xmlns:cc="http://creativecommons.org/ns#"
   xmlns:rdf="http://www.w3.org/1999/02/22-rdf-syntax-ns#"
   xmlns:svg="http://www.w3.org/2000/svg"
   xmlns="http://www.w3.org/2000/svg"
   xmlns:sodipodi="http://sodipodi.sourceforge.net/DTD/sodipodi-0.dtd"
   xmlns:inkscape="http://www.inkscape.org/namespaces/inkscape"
   width="24.905939mm"
   height="26.458321mm"
   viewBox="0 0 24.905939 26.458321"
   version="1.1"
   id="svg4097"
   inkscape:version="0.92.4 (5da689c313, 2019-01-14)"
   sodipodi:docname="uniF057b.svg">
  <defs
     id="defs4091" />
  <sodipodi:namedview
     id="base"
     pagecolor="#ffffff"
     bordercolor="#666666"
     borderopacity="1.0"
     inkscape:pageopacity="0.0"
     inkscape:pageshadow="2"
     inkscape:zoom="2.8"
     inkscape:cx="169.32634"
     inkscape:cy="94.997506"
     inkscape:document-units="mm"
     inkscape:current-layer="layer1"
     showgrid="false"
     inkscape:window-width="1920"
     inkscape:window-height="991"
     inkscape:window-x="2391"
     inkscape:window-y="-9"
     inkscape:window-maximized="1" />
  <metadata
     id="metadata4094">
    <rdf:RDF>
      <cc:Work
         rdf:about="">
        <dc:format>image/svg+xml</dc:format>
        <dc:type
           rdf:resource="http://purl.org/dc/dcmitype/StillImage" />
        <dc:title></dc:title>
      </cc:Work>
    </rdf:RDF>
  </metadata>
  <g
     inkscape:label="Camada 1"
     inkscape:groupmode="layer"
     id="layer1"
     transform="translate(-92.54703,-135.27083)">
    <path
       style="fill:#ffffff;stroke-width:0.26458338"
       d="m 94.13447,160.93541 c 0,-0.76705 0.041,-0.79375 1.21858,-0.79375 0.92084,0 1.4149,-0.16519 2.02209,-0.67611 1.2274,-1.03279 3.27937,-1.98368 5.06772,-2.34839 l 1.61349,-0.32905 0.0696,-9.17114 0.0696,-9.17114 h -2.91384 c -1.60262,0 -2.91392,0.0893 -2.91401,0.19844 -9e-5,0.10914 0.62499,2.01313 1.38906,4.2311 1.23709,3.59104 1.45442,4.0329 1.98454,4.03489 1.14846,0.004 0.61933,2.05133 -0.90242,3.49113 -2.18342,2.06585 -5.71588,1.61502 -7.48422,-0.95517 -1.03904,-1.5102 -1.07666,-2.46667 -0.10158,-2.5823 0.65857,-0.0781 0.79204,-0.34129 1.98438,-3.91323 0.70308,-2.10623 1.27832,-3.98147 1.27832,-4.16719 0,-0.24382 -0.5515,-0.33767 -1.98437,-0.33767 h -1.98438 v -0.79375 -0.79375 h 5.82083 5.82084 v -0.79375 c 0,-0.70556 0.0882,-0.79375 0.79375,-0.79375 0.7044,0 0.79375,0.0888 0.79375,0.78859 v 0.78859 l 5.75469,0.0713 5.75468,0.0713 0.0837,0.7276 0.0837,0.72761 h -2.16255 c -1.61947,0 -2.13155,0.083 -2.03913,0.33073 0.0679,0.1819 0.70262,2.0869 1.41054,4.23333 1.24691,3.78066 1.31008,3.9026 2.02156,3.9026 0.61026,0 0.73443,0.11373 0.73443,0.67263 0,0.36994 -0.11492,0.81643 -0.25538,0.99219 -2.04589,2.56005 -2.87407,3.09768 -4.7717,3.09768 -1.89763,0 -2.72581,-0.53763 -4.7717,-3.09768 -0.14046,-0.17576 -0.25538,-0.61434 -0.25538,-0.97462 0,-0.51791 0.15232,-0.67257 0.7276,-0.73877 0.68547,-0.0789 0.80697,-0.31355 2.09813,-4.05247 0.75379,-2.18281 1.37886,-4.05804 1.38906,-4.16719 0.0102,-0.10914 -1.29115,-0.19843 -2.89188,-0.19843 h -2.91041 v 9.22356 9.22356 l 1.34333,0.1591 c 1.58676,0.18793 3.95399,1.21484 5.32188,2.30864 0.72059,0.5762 1.25824,0.78097 2.05052,0.78097 1.01678,0 1.07385,0.0422 1.07385,0.79375 v 0.79375 H 104.85012 94.13449 Z m 16.28246,-1.0412 c -0.0841,-0.1361 -0.83528,-0.5113 -1.66926,-0.83378 -1.13911,-0.44047 -2.0758,-0.58633 -3.76528,-0.58633 -1.68949,0 -2.62618,0.14586 -3.76529,0.58633 -0.83398,0.32248 -1.58514,0.69768 -1.66926,0.83378 -0.0931,0.15057 2.03477,0.24745 5.43455,0.24745 3.39977,0 5.5276,-0.0969 5.43454,-0.24745 z m -10.96549,-10.3539 c 0.42265,-0.30095 0.76845,-0.65814 0.76845,-0.79375 0,-0.13755 -1.25749,-0.24313 -2.84427,-0.23881 l -2.84427,0.008 0.86407,0.786 c 1.08642,0.98825 2.85711,1.09251 4.05602,0.23881 z m 15.11792,-0.23881 0.86407,-0.78599 h -3.04271 -3.04271 l 0.86407,0.78599 c 0.71479,0.6502 1.09119,0.786 2.17864,0.786 1.08745,0 1.46386,-0.1358 2.17864,-0.786 z m -15.14322,-2.47166 c 0,-0.107 -1.54012,-4.68835 -1.75112,-5.20901 -0.1349,-0.33288 -1.95305,4.39912 -1.95305,5.08309 0,0.11472 0.83344,0.20858 1.85208,0.20858 1.01865,0 1.85209,-0.0372 1.85209,-0.0827 z m 14.81666,-0.1022 c 0,-0.40983 -1.71077,-5.37139 -1.85208,-5.37139 -0.14131,0 -1.85208,4.96156 -1.85208,5.37139 0,0.10167 0.83344,0.18486 1.85208,0.18486 1.01865,0 1.85208,-0.0832 1.85208,-0.18486 z"
       id="path985"
       inkscape:connector-curvature="0" />
  </g>
</svg>
